<mxfile host="app.diagrams.net" modified="2023-03-03T09:26:11.412Z" agent="5.0 (Macintosh; Intel Mac OS X 10_15_7) AppleWebKit/537.36 (KHTML, like Gecko) Chrome/110.0.0.0 Safari/537.36" etag="3WNgmPzXYZ8AtV1XzIm4" version="20.0.4" type="github">
  <diagram id="QCw60tyAbhrBxFfpFavn" name="Page-1">
    <mxGraphModel dx="1018" dy="604" grid="1" gridSize="10" guides="1" tooltips="1" connect="1" arrows="1" fold="1" page="1" pageScale="1" pageWidth="827" pageHeight="1169" math="0" shadow="0">
      <root>
        <mxCell id="0" />
        <mxCell id="1" parent="0" />
        <mxCell id="6gx0l_ZdjT-B5nw_couS-11" style="edgeStyle=orthogonalEdgeStyle;rounded=0;orthogonalLoop=1;jettySize=auto;html=1;entryX=0.5;entryY=0;entryDx=0;entryDy=0;" edge="1" parent="1" source="6gx0l_ZdjT-B5nw_couS-1" target="6gx0l_ZdjT-B5nw_couS-10">
          <mxGeometry relative="1" as="geometry" />
        </mxCell>
        <mxCell id="6gx0l_ZdjT-B5nw_couS-12" value="Create Customer" style="edgeLabel;html=1;align=center;verticalAlign=middle;resizable=0;points=[];" vertex="1" connectable="0" parent="6gx0l_ZdjT-B5nw_couS-11">
          <mxGeometry x="0.2125" y="3" relative="1" as="geometry">
            <mxPoint as="offset" />
          </mxGeometry>
        </mxCell>
        <mxCell id="6gx0l_ZdjT-B5nw_couS-1" value="&lt;div style=&quot;&quot;&gt;&lt;span style=&quot;background-color: initial; line-height: 1.2;&quot;&gt;Portal Login&lt;/span&gt;&lt;/div&gt;&lt;div style=&quot;&quot;&gt;&lt;span style=&quot;background-color: initial; line-height: 1.2;&quot;&gt;&lt;br&gt;&lt;/span&gt;&lt;/div&gt;&lt;div style=&quot;&quot;&gt;&lt;span style=&quot;background-color: initial; line-height: 1.2;&quot;&gt;&lt;br&gt;&lt;/span&gt;&lt;/div&gt;&lt;div style=&quot;&quot;&gt;&lt;span style=&quot;background-color: initial; line-height: 1.2;&quot;&gt;&lt;br&gt;&lt;/span&gt;&lt;/div&gt;&lt;div style=&quot;&quot;&gt;&lt;span style=&quot;background-color: initial; line-height: 1.2;&quot;&gt;&lt;br&gt;&lt;/span&gt;&lt;/div&gt;&lt;div style=&quot;&quot;&gt;&lt;span style=&quot;background-color: initial; line-height: 1.2;&quot;&gt;&lt;br&gt;&lt;/span&gt;&lt;/div&gt;&lt;div style=&quot;&quot;&gt;&lt;span style=&quot;background-color: initial; line-height: 1.2;&quot;&gt;&lt;br&gt;&lt;/span&gt;&lt;/div&gt;" style="rounded=1;whiteSpace=wrap;html=1;align=center;" vertex="1" parent="1">
          <mxGeometry x="240" y="160" width="160" height="120" as="geometry" />
        </mxCell>
        <mxCell id="6gx0l_ZdjT-B5nw_couS-2" value="Custom Policies" style="shape=document;whiteSpace=wrap;html=1;boundedLbl=1;" vertex="1" parent="1">
          <mxGeometry x="275" y="200" width="90" height="60" as="geometry" />
        </mxCell>
        <mxCell id="6gx0l_ZdjT-B5nw_couS-7" value="Subscription Intent" style="edgeStyle=orthogonalEdgeStyle;rounded=0;orthogonalLoop=1;jettySize=auto;html=1;entryX=0.5;entryY=0;entryDx=0;entryDy=0;" edge="1" parent="1" source="6gx0l_ZdjT-B5nw_couS-3" target="6gx0l_ZdjT-B5nw_couS-1">
          <mxGeometry relative="1" as="geometry" />
        </mxCell>
        <mxCell id="6gx0l_ZdjT-B5nw_couS-3" value="Azure Marketplace" style="rounded=1;whiteSpace=wrap;html=1;" vertex="1" parent="1">
          <mxGeometry x="240" y="40" width="160" height="40" as="geometry" />
        </mxCell>
        <mxCell id="6gx0l_ZdjT-B5nw_couS-14" style="edgeStyle=orthogonalEdgeStyle;rounded=0;orthogonalLoop=1;jettySize=auto;html=1;" edge="1" parent="1" source="6gx0l_ZdjT-B5nw_couS-10" target="6gx0l_ZdjT-B5nw_couS-13">
          <mxGeometry relative="1" as="geometry" />
        </mxCell>
        <mxCell id="6gx0l_ZdjT-B5nw_couS-15" value="Create Customer" style="edgeLabel;html=1;align=center;verticalAlign=middle;resizable=0;points=[];" vertex="1" connectable="0" parent="6gx0l_ZdjT-B5nw_couS-14">
          <mxGeometry x="-0.1875" y="-3" relative="1" as="geometry">
            <mxPoint as="offset" />
          </mxGeometry>
        </mxCell>
        <mxCell id="6gx0l_ZdjT-B5nw_couS-17" value="Create Customer" style="edgeStyle=orthogonalEdgeStyle;rounded=0;orthogonalLoop=1;jettySize=auto;html=1;entryX=0.5;entryY=0;entryDx=0;entryDy=0;exitX=0;exitY=0.5;exitDx=0;exitDy=0;" edge="1" parent="1" source="6gx0l_ZdjT-B5nw_couS-10" target="6gx0l_ZdjT-B5nw_couS-16">
          <mxGeometry relative="1" as="geometry" />
        </mxCell>
        <mxCell id="6gx0l_ZdjT-B5nw_couS-19" style="edgeStyle=orthogonalEdgeStyle;rounded=0;orthogonalLoop=1;jettySize=auto;html=1;entryX=0.5;entryY=0;entryDx=0;entryDy=0;" edge="1" parent="1" source="6gx0l_ZdjT-B5nw_couS-10" target="6gx0l_ZdjT-B5nw_couS-18">
          <mxGeometry relative="1" as="geometry" />
        </mxCell>
        <mxCell id="6gx0l_ZdjT-B5nw_couS-20" value="Create Customer" style="edgeLabel;html=1;align=center;verticalAlign=middle;resizable=0;points=[];" vertex="1" connectable="0" parent="6gx0l_ZdjT-B5nw_couS-19">
          <mxGeometry x="-0.2625" y="1" relative="1" as="geometry">
            <mxPoint as="offset" />
          </mxGeometry>
        </mxCell>
        <mxCell id="6gx0l_ZdjT-B5nw_couS-10" value="Portal" style="rounded=1;whiteSpace=wrap;html=1;" vertex="1" parent="1">
          <mxGeometry x="240" y="360" width="160" height="40" as="geometry" />
        </mxCell>
        <mxCell id="6gx0l_ZdjT-B5nw_couS-13" value="Stripe" style="rounded=1;whiteSpace=wrap;html=1;" vertex="1" parent="1">
          <mxGeometry x="440" y="480" width="160" height="40" as="geometry" />
        </mxCell>
        <mxCell id="6gx0l_ZdjT-B5nw_couS-16" value="MongoDB" style="rounded=1;whiteSpace=wrap;html=1;" vertex="1" parent="1">
          <mxGeometry x="40" y="480" width="160" height="40" as="geometry" />
        </mxCell>
        <mxCell id="6gx0l_ZdjT-B5nw_couS-18" value="Azure APIM" style="rounded=1;whiteSpace=wrap;html=1;" vertex="1" parent="1">
          <mxGeometry x="240" y="480" width="160" height="40" as="geometry" />
        </mxCell>
      </root>
    </mxGraphModel>
  </diagram>
</mxfile>
